<svg width="40" height="40" viewBox="0 0 40 40" fill="none" xmlns="http://www.w3.org/2000/svg">
<path d="M10.7464 13.2824C10.868 12.1878 10.9288 11.6405 11.0381 11.1742C11.8052 7.90201 14.5356 5.45814 17.8725 5.05715C18.348 5 18.8987 5 20 5V5C21.1013 5 21.652 5 22.1275 5.05715C25.4644 5.45814 28.1948 7.90201 28.9619 11.1742C29.0712 11.6405 29.132 12.1878 29.2536 13.2824L29.6733 17.0594C29.8066 18.2592 29.8732 18.8591 30.0269 19.4371C30.1169 19.7755 30.229 20.1077 30.3626 20.4314C30.5906 20.9843 30.9011 21.5019 31.5222 22.5371L33.1826 25.3043C33.9884 26.6473 34.3912 27.3187 34.104 27.826C33.8168 28.3333 33.0337 28.3333 31.4676 28.3333H8.53238C6.96627 28.3333 6.18322 28.3333 5.89599 27.826C5.60876 27.3187 6.01164 26.6473 6.81739 25.3043L8.47776 22.5371C9.09886 21.5019 9.40941 20.9843 9.63745 20.4314C9.77096 20.1077 9.88307 19.7755 9.97306 19.4371C10.1268 18.8591 10.1934 18.2592 10.3267 17.0594L10.7464 13.2824Z" stroke="#A6A6A9" stroke-width="2"/>
<path d="M13.3333 28.3333C13.3333 29.2088 13.5057 30.0757 13.8408 30.8846C14.1758 31.6934 14.6669 32.4283 15.2859 33.0474C15.905 33.6664 16.6399 34.1575 17.4487 34.4925C18.2576 34.8276 19.1245 35 20 35C20.8754 35 21.7423 34.8276 22.5512 34.4925C23.36 34.1575 24.0949 33.6664 24.714 33.0474C25.3331 32.4283 25.8241 31.6934 26.1592 30.8846C26.4942 30.0757 26.6666 29.2088 26.6666 28.3333" stroke="#A6A6A9" stroke-width="2" stroke-linecap="round"/>
</svg>
